<mxfile host="3749feb7-1851-4213-8aa1-bb908791314c" modified="2020-10-03T07:48:39.237Z" agent="5.0 (Macintosh; Intel Mac OS X 10_14_6) AppleWebKit/537.36 (KHTML, like Gecko) Code/1.49.2 Chrome/83.0.4103.122 Electron/9.2.1 Safari/537.36" etag="JeQo9L0ojmmv8QtcA0S4" version="13.1.3" pages="2">
    <diagram id="6hGFLwfOUW9BJ-s0fimq" name="Page-1">
        <mxGraphModel dx="1425" dy="1067" grid="1" gridSize="10" guides="1" tooltips="1" connect="1" arrows="1" fold="1" page="1" pageScale="1" pageWidth="827" pageHeight="1169" math="0" shadow="0">
            <root>
                <mxCell id="0"/>
                <mxCell id="1" parent="0"/>
                <mxCell id="2" value="&lt;font style=&quot;font-size: 20px&quot;&gt;トップページ&lt;br&gt;&lt;/font&gt;&lt;ul style=&quot;font-size: 20px&quot;&gt;&lt;li&gt;&lt;font style=&quot;font-size: 20px&quot;&gt;ログイン&lt;/font&gt;&lt;/li&gt;&lt;li&gt;&lt;font style=&quot;font-size: 20px&quot;&gt;サインイン&lt;/font&gt;&lt;/li&gt;&lt;/ul&gt;" style="rounded=0;whiteSpace=wrap;html=1;strokeColor=#F0F0F0;" parent="1" vertex="1">
                    <mxGeometry x="30" y="90" width="240" height="130" as="geometry"/>
                </mxCell>
                <mxCell id="3" value="&lt;font style=&quot;font-size: 20px&quot;&gt;マイページ&lt;br&gt;&lt;/font&gt;&lt;ul style=&quot;font-size: 20px&quot;&gt;&lt;li&gt;&lt;font style=&quot;font-size: 20px&quot;&gt;画像登録&lt;/font&gt;&lt;/li&gt;&lt;li&gt;&lt;font style=&quot;font-size: 20px&quot;&gt;プロフィール&lt;br&gt;自分の投稿した内容&lt;br&gt;&lt;br&gt;&lt;/font&gt;&lt;/li&gt;&lt;/ul&gt;" style="rounded=0;whiteSpace=wrap;html=1;strokeColor=#F0F0F0;" parent="1" vertex="1">
                    <mxGeometry x="20" y="250" width="250" height="180" as="geometry"/>
                </mxCell>
                <mxCell id="4" value="&lt;font style=&quot;font-size: 20px&quot;&gt;タイムライン&lt;br&gt;&lt;/font&gt;&lt;ul style=&quot;font-size: 20px&quot;&gt;&lt;li&gt;&lt;font style=&quot;font-size: 20px&quot;&gt;他人の投稿&lt;/font&gt;&lt;/li&gt;&lt;li&gt;&lt;font style=&quot;font-size: 20px&quot;&gt;自分の投稿&lt;/font&gt;&lt;/li&gt;&lt;/ul&gt;" style="rounded=0;whiteSpace=wrap;html=1;strokeColor=#F0F0F0;align=center;" parent="1" vertex="1">
                    <mxGeometry x="490" y="90" width="260" height="210" as="geometry"/>
                </mxCell>
                <mxCell id="5" value="" style="endArrow=classic;html=1;entryX=0;entryY=0.25;entryDx=0;entryDy=0;" parent="1" source="2" target="4" edge="1">
                    <mxGeometry width="50" height="50" relative="1" as="geometry">
                        <mxPoint x="240" y="320" as="sourcePoint"/>
                        <mxPoint x="260" y="250" as="targetPoint"/>
                    </mxGeometry>
                </mxCell>
                <mxCell id="7" value="" style="endArrow=classic;html=1;exitX=0.5;exitY=1;exitDx=0;exitDy=0;" parent="1" source="2" target="3" edge="1">
                    <mxGeometry width="50" height="50" relative="1" as="geometry">
                        <mxPoint x="140" y="270" as="sourcePoint"/>
                        <mxPoint x="190" y="220" as="targetPoint"/>
                    </mxGeometry>
                </mxCell>
                <mxCell id="8" value="post_id" style="text;html=1;align=center;verticalAlign=middle;resizable=0;points=[];autosize=1;" parent="1" vertex="1">
                    <mxGeometry x="660" y="230" width="50" height="20" as="geometry"/>
                </mxCell>
                <mxCell id="9" value="user_id" style="text;html=1;align=center;verticalAlign=middle;resizable=0;points=[];autosize=1;" parent="1" vertex="1">
                    <mxGeometry x="50" y="373" width="50" height="20" as="geometry"/>
                </mxCell>
                <mxCell id="14" value="user_name" style="text;html=1;align=center;verticalAlign=middle;resizable=0;points=[];autosize=1;" parent="1" vertex="1">
                    <mxGeometry x="40" y="393" width="80" height="20" as="geometry"/>
                </mxCell>
                <mxCell id="15" value="image_id" style="text;html=1;align=center;verticalAlign=middle;resizable=0;points=[];autosize=1;" parent="1" vertex="1">
                    <mxGeometry x="130" y="383" width="60" height="20" as="geometry"/>
                </mxCell>
                <mxCell id="16" value="like" style="text;html=1;align=center;verticalAlign=middle;resizable=0;points=[];autosize=1;" parent="1" vertex="1">
                    <mxGeometry x="660" y="250" width="30" height="20" as="geometry"/>
                </mxCell>
                <mxCell id="17" value="comment_id" style="text;html=1;align=center;verticalAlign=middle;resizable=0;points=[];autosize=1;" parent="1" vertex="1">
                    <mxGeometry x="649" y="270" width="80" height="20" as="geometry"/>
                </mxCell>
                <mxCell id="18" value="description" style="text;html=1;align=center;verticalAlign=middle;resizable=0;points=[];autosize=1;" parent="1" vertex="1">
                    <mxGeometry x="130" y="403" width="70" height="20" as="geometry"/>
                </mxCell>
                <mxCell id="30" value="e-mail&lt;br&gt;password" style="text;html=1;align=center;verticalAlign=middle;resizable=0;points=[];autosize=1;" parent="1" vertex="1">
                    <mxGeometry x="190" y="180" width="70" height="30" as="geometry"/>
                </mxCell>
                <mxCell id="46" value="" style="edgeStyle=orthogonalEdgeStyle;rounded=0;orthogonalLoop=1;jettySize=auto;html=1;" parent="1" source="31" target="45" edge="1">
                    <mxGeometry relative="1" as="geometry"/>
                </mxCell>
                <mxCell id="31" value="JOB&lt;br&gt;投稿ページ" style="rounded=0;whiteSpace=wrap;html=1;strokeColor=#F0F0F0;" parent="1" vertex="1">
                    <mxGeometry x="290" y="403" width="170" height="120" as="geometry"/>
                </mxCell>
                <mxCell id="45" value="JOB&lt;br&gt;一覧ページ" style="rounded=0;whiteSpace=wrap;html=1;strokeColor=#F0F0F0;" parent="1" vertex="1">
                    <mxGeometry x="640" y="423" width="170" height="120" as="geometry"/>
                </mxCell>
                <mxCell id="44" value="" style="edgeStyle=orthogonalEdgeStyle;rounded=0;orthogonalLoop=1;jettySize=auto;html=1;" parent="1" source="32" target="43" edge="1">
                    <mxGeometry relative="1" as="geometry"/>
                </mxCell>
                <mxCell id="32" value="EVENT&lt;br&gt;投稿ページ" style="rounded=0;whiteSpace=wrap;html=1;strokeColor=#F0F0F0;" parent="1" vertex="1">
                    <mxGeometry x="270" y="570" width="170" height="116" as="geometry"/>
                </mxCell>
                <mxCell id="43" value="EVENT&lt;br&gt;一覧ページ" style="rounded=0;whiteSpace=wrap;html=1;strokeColor=#F0F0F0;" parent="1" vertex="1">
                    <mxGeometry x="660" y="570" width="170" height="116" as="geometry"/>
                </mxCell>
                <mxCell id="34" value="" style="endArrow=classic;html=1;exitX=1;exitY=0.5;exitDx=0;exitDy=0;" parent="1" source="3" edge="1" target="31">
                    <mxGeometry width="50" height="50" relative="1" as="geometry">
                        <mxPoint x="230" y="503" as="sourcePoint"/>
                        <mxPoint x="280" y="453" as="targetPoint"/>
                    </mxGeometry>
                </mxCell>
                <mxCell id="35" value="" style="endArrow=classic;html=1;exitX=0.811;exitY=1.006;exitDx=0;exitDy=0;exitPerimeter=0;entryX=0.178;entryY=0.012;entryDx=0;entryDy=0;entryPerimeter=0;" parent="1" source="3" target="32" edge="1">
                    <mxGeometry width="50" height="50" relative="1" as="geometry">
                        <mxPoint x="190" y="410" as="sourcePoint"/>
                        <mxPoint x="460" y="540" as="targetPoint"/>
                        <Array as="points"/>
                    </mxGeometry>
                </mxCell>
                <mxCell id="42" value="" style="edgeStyle=orthogonalEdgeStyle;rounded=0;orthogonalLoop=1;jettySize=auto;html=1;" parent="1" source="36" target="41" edge="1">
                    <mxGeometry relative="1" as="geometry"/>
                </mxCell>
                <mxCell id="36" value="LESSON・&lt;br&gt;投稿ページ" style="rounded=0;whiteSpace=wrap;html=1;strokeColor=#F0F0F0;" parent="1" vertex="1">
                    <mxGeometry x="270" y="710" width="170" height="130" as="geometry"/>
                </mxCell>
                <mxCell id="41" value="LESSON・&lt;br&gt;一覧ページ&lt;br&gt;" style="rounded=0;whiteSpace=wrap;html=1;strokeColor=#F0F0F0;" parent="1" vertex="1">
                    <mxGeometry x="660" y="750" width="170" height="130" as="geometry"/>
                </mxCell>
                <mxCell id="37" value="" style="endArrow=classic;html=1;exitX=0.25;exitY=1;exitDx=0;exitDy=0;" parent="1" source="3" target="36" edge="1">
                    <mxGeometry width="50" height="50" relative="1" as="geometry">
                        <mxPoint x="190" y="540" as="sourcePoint"/>
                        <mxPoint x="260" y="730" as="targetPoint"/>
                        <Array as="points">
                            <mxPoint x="270" y="710"/>
                        </Array>
                    </mxGeometry>
                </mxCell>
                <mxCell id="38" value="" style="endArrow=classic;html=1;exitX=1.018;exitY=0.448;exitDx=0;exitDy=0;exitPerimeter=0;" parent="1" source="32" edge="1">
                    <mxGeometry width="50" height="50" relative="1" as="geometry">
                        <mxPoint x="440" y="543" as="sourcePoint"/>
                        <mxPoint x="541" y="290" as="targetPoint"/>
                        <Array as="points">
                            <mxPoint x="520" y="440"/>
                        </Array>
                    </mxGeometry>
                </mxCell>
                <mxCell id="39" value="" style="endArrow=classic;html=1;entryX=0.75;entryY=1;entryDx=0;entryDy=0;exitX=1;exitY=0.5;exitDx=0;exitDy=0;" parent="1" source="36" target="4" edge="1">
                    <mxGeometry width="50" height="50" relative="1" as="geometry">
                        <mxPoint x="450" y="770" as="sourcePoint"/>
                        <mxPoint x="500" y="720" as="targetPoint"/>
                    </mxGeometry>
                </mxCell>
                <mxCell id="40" value="" style="endArrow=classic;html=1;exitX=1;exitY=0.5;exitDx=0;exitDy=0;" parent="1" source="31" edge="1">
                    <mxGeometry width="50" height="50" relative="1" as="geometry">
                        <mxPoint x="450" y="770" as="sourcePoint"/>
                        <mxPoint x="497" y="290" as="targetPoint"/>
                        <Array as="points"/>
                    </mxGeometry>
                </mxCell>
                <mxCell id="47" value="Text" style="text;html=1;align=center;verticalAlign=middle;resizable=0;points=[];autosize=1;" parent="1" vertex="1">
                    <mxGeometry x="530" y="1030" width="40" height="20" as="geometry"/>
                </mxCell>
                <mxCell id="48" value="Text" style="text;html=1;align=center;verticalAlign=middle;resizable=0;points=[];autosize=1;" parent="1" vertex="1">
                    <mxGeometry x="609" y="493" width="40" height="20" as="geometry"/>
                </mxCell>
                <mxCell id="49" value="job_title&lt;br&gt;job_content" style="text;html=1;align=center;verticalAlign=middle;resizable=0;points=[];autosize=1;" parent="1" vertex="1">
                    <mxGeometry x="374" y="483" width="80" height="30" as="geometry"/>
                </mxCell>
                <mxCell id="50" value="event_title&lt;br&gt;event_content" style="text;html=1;align=center;verticalAlign=middle;resizable=0;points=[];autosize=1;" parent="1" vertex="1">
                    <mxGeometry x="350" y="650" width="90" height="30" as="geometry"/>
                </mxCell>
                <mxCell id="53" value="lesson_title&lt;br&gt;lesson_content" style="text;html=1;align=center;verticalAlign=middle;resizable=0;points=[];autosize=1;" parent="1" vertex="1">
                    <mxGeometry x="340" y="800" width="100" height="30" as="geometry"/>
                </mxCell>
                <mxCell id="54" value="" style="endArrow=classic;html=1;entryX=1;entryY=0.25;entryDx=0;entryDy=0;exitX=0;exitY=0.75;exitDx=0;exitDy=0;" parent="1" source="4" target="3" edge="1">
                    <mxGeometry width="50" height="50" relative="1" as="geometry">
                        <mxPoint x="450" y="570" as="sourcePoint"/>
                        <mxPoint x="500" y="520" as="targetPoint"/>
                    </mxGeometry>
                </mxCell>
                <mxCell id="55" value="" style="shape=actor;whiteSpace=wrap;html=1;" parent="1" vertex="1">
                    <mxGeometry x="40" y="280" width="40" height="60" as="geometry"/>
                </mxCell>
            </root>
        </mxGraphModel>
    </diagram>
    <diagram id="3_aUoW040qXwu9v7KKkj" name="Page-2">
        <mxGraphModel dx="784" dy="587" grid="1" gridSize="10" guides="1" tooltips="1" connect="1" arrows="1" fold="1" page="1" pageScale="1" pageWidth="827" pageHeight="1169" math="0" shadow="0">
            <root>
                <mxCell id="4C-G9B4-Cq-UseAx9-8V-0"/>
                <mxCell id="4C-G9B4-Cq-UseAx9-8V-1" parent="4C-G9B4-Cq-UseAx9-8V-0"/>
                <mxCell id="4ccsNfkE2tcqgr1__xzT-1" value="" style="endArrow=classic;html=1;exitX=0.575;exitY=0.033;exitDx=0;exitDy=0;exitPerimeter=0;" edge="1" parent="4C-G9B4-Cq-UseAx9-8V-1" source="4ccsNfkE2tcqgr1__xzT-30">
                    <mxGeometry width="50" height="50" relative="1" as="geometry">
                        <mxPoint x="274" y="397.91999999999996" as="sourcePoint"/>
                        <mxPoint x="440" y="340" as="targetPoint"/>
                    </mxGeometry>
                </mxCell>
                <mxCell id="4ccsNfkE2tcqgr1__xzT-2" value="" style="endArrow=classic;html=1;" edge="1" parent="4C-G9B4-Cq-UseAx9-8V-1">
                    <mxGeometry width="50" height="50" relative="1" as="geometry">
                        <mxPoint x="230" y="230" as="sourcePoint"/>
                        <mxPoint x="440" y="280" as="targetPoint"/>
                        <Array as="points">
                            <mxPoint x="260" y="241.06"/>
                        </Array>
                    </mxGeometry>
                </mxCell>
                <mxCell id="4ccsNfkE2tcqgr1__xzT-3" value="" style="endArrow=classic;html=1;exitX=0.629;exitY=1.023;exitDx=0;exitDy=0;exitPerimeter=0;" edge="1" parent="4C-G9B4-Cq-UseAx9-8V-1">
                    <mxGeometry width="50" height="50" relative="1" as="geometry">
                        <mxPoint x="180.96000000000004" y="222.99" as="sourcePoint"/>
                        <mxPoint x="181" y="290" as="targetPoint"/>
                    </mxGeometry>
                </mxCell>
                <mxCell id="4ccsNfkE2tcqgr1__xzT-4" value="" style="shape=internalStorage;whiteSpace=wrap;html=1;backgroundOutline=1;strokeColor=#F0F0F0;" vertex="1" parent="4C-G9B4-Cq-UseAx9-8V-1">
                    <mxGeometry x="445" y="200" width="170" height="190" as="geometry"/>
                </mxCell>
                <mxCell id="4ccsNfkE2tcqgr1__xzT-6" value="" style="shape=internalStorage;whiteSpace=wrap;html=1;backgroundOutline=1;strokeColor=#F0F0F0;" vertex="1" parent="4C-G9B4-Cq-UseAx9-8V-1">
                    <mxGeometry x="65" y="490" width="170" height="200" as="geometry"/>
                </mxCell>
                <mxCell id="4ccsNfkE2tcqgr1__xzT-7" value="image" style="text;html=1;align=center;verticalAlign=middle;resizable=0;points=[];autosize=1;" vertex="1" parent="4C-G9B4-Cq-UseAx9-8V-1">
                    <mxGeometry x="90" y="530" width="50" height="20" as="geometry"/>
                </mxCell>
                <mxCell id="4ccsNfkE2tcqgr1__xzT-8" value="name" style="text;html=1;align=center;verticalAlign=middle;resizable=0;points=[];autosize=1;" vertex="1" parent="4C-G9B4-Cq-UseAx9-8V-1">
                    <mxGeometry x="90" y="550" width="50" height="20" as="geometry"/>
                </mxCell>
                <mxCell id="4ccsNfkE2tcqgr1__xzT-9" value="content" style="text;html=1;align=center;verticalAlign=middle;resizable=0;points=[];autosize=1;" vertex="1" parent="4C-G9B4-Cq-UseAx9-8V-1">
                    <mxGeometry x="95" y="585" width="50" height="20" as="geometry"/>
                </mxCell>
                <mxCell id="4ccsNfkE2tcqgr1__xzT-10" value="user" style="text;html=1;align=center;verticalAlign=middle;resizable=0;points=[];autosize=1;" vertex="1" parent="4C-G9B4-Cq-UseAx9-8V-1">
                    <mxGeometry x="120" y="490" width="40" height="20" as="geometry"/>
                </mxCell>
                <mxCell id="4ccsNfkE2tcqgr1__xzT-11" value="title" style="text;html=1;align=center;verticalAlign=middle;resizable=0;points=[];autosize=1;" vertex="1" parent="4C-G9B4-Cq-UseAx9-8V-1">
                    <mxGeometry x="480" y="230" width="30" height="20" as="geometry"/>
                </mxCell>
                <mxCell id="4ccsNfkE2tcqgr1__xzT-12" value="content" style="text;html=1;align=center;verticalAlign=middle;resizable=0;points=[];autosize=1;" vertex="1" parent="4C-G9B4-Cq-UseAx9-8V-1">
                    <mxGeometry x="480" y="250" width="50" height="20" as="geometry"/>
                </mxCell>
                <mxCell id="4ccsNfkE2tcqgr1__xzT-13" value="comment" style="text;html=1;align=center;verticalAlign=middle;resizable=0;points=[];autosize=1;" vertex="1" parent="4C-G9B4-Cq-UseAx9-8V-1">
                    <mxGeometry x="480" y="320" width="60" height="20" as="geometry"/>
                </mxCell>
                <mxCell id="4ccsNfkE2tcqgr1__xzT-14" value="category" style="text;html=1;align=center;verticalAlign=middle;resizable=0;points=[];autosize=1;" vertex="1" parent="4C-G9B4-Cq-UseAx9-8V-1">
                    <mxGeometry x="520" y="230" width="60" height="20" as="geometry"/>
                </mxCell>
                <mxCell id="4ccsNfkE2tcqgr1__xzT-15" value="like" style="text;html=1;align=center;verticalAlign=middle;resizable=0;points=[];autosize=1;" vertex="1" parent="4C-G9B4-Cq-UseAx9-8V-1">
                    <mxGeometry x="480" y="340" width="30" height="20" as="geometry"/>
                </mxCell>
                <mxCell id="4ccsNfkE2tcqgr1__xzT-22" value="" style="edgeStyle=orthogonalEdgeStyle;rounded=0;orthogonalLoop=1;jettySize=auto;html=1;entryX=0.75;entryY=-0.1;entryDx=0;entryDy=0;entryPerimeter=0;" edge="1" parent="4C-G9B4-Cq-UseAx9-8V-1" source="4ccsNfkE2tcqgr1__xzT-16" target="4ccsNfkE2tcqgr1__xzT-10">
                    <mxGeometry relative="1" as="geometry">
                        <mxPoint x="153" y="480" as="targetPoint"/>
                    </mxGeometry>
                </mxCell>
                <mxCell id="4ccsNfkE2tcqgr1__xzT-16" value="" style="shape=internalStorage;whiteSpace=wrap;html=1;backgroundOutline=1;strokeColor=#F0F0F0;" vertex="1" parent="4C-G9B4-Cq-UseAx9-8V-1">
                    <mxGeometry x="80" y="170" width="140" height="160" as="geometry"/>
                </mxCell>
                <mxCell id="4ccsNfkE2tcqgr1__xzT-17" value="e_mail" style="text;html=1;align=center;verticalAlign=middle;resizable=0;points=[];autosize=1;" vertex="1" parent="4C-G9B4-Cq-UseAx9-8V-1">
                    <mxGeometry x="110" y="200" width="50" height="20" as="geometry"/>
                </mxCell>
                <mxCell id="4ccsNfkE2tcqgr1__xzT-18" value="password" style="text;html=1;align=center;verticalAlign=middle;resizable=0;points=[];autosize=1;" vertex="1" parent="4C-G9B4-Cq-UseAx9-8V-1">
                    <mxGeometry x="105" y="220" width="70" height="20" as="geometry"/>
                </mxCell>
                <mxCell id="4ccsNfkE2tcqgr1__xzT-20" value="sign_in/log_in" style="text;html=1;align=center;verticalAlign=middle;resizable=0;points=[];autosize=1;" vertex="1" parent="4C-G9B4-Cq-UseAx9-8V-1">
                    <mxGeometry x="110" y="170" width="90" height="20" as="geometry"/>
                </mxCell>
                <mxCell id="4ccsNfkE2tcqgr1__xzT-23" value="" style="shape=actor;whiteSpace=wrap;html=1;strokeColor=#F0F0F0;" vertex="1" parent="4C-G9B4-Cq-UseAx9-8V-1">
                    <mxGeometry x="175" y="530" width="40" height="60" as="geometry"/>
                </mxCell>
                <mxCell id="4ccsNfkE2tcqgr1__xzT-24" value="カテゴリー&lt;br&gt;検索機能" style="text;html=1;align=center;verticalAlign=middle;resizable=0;points=[];autosize=1;" vertex="1" parent="4C-G9B4-Cq-UseAx9-8V-1">
                    <mxGeometry x="630" y="235" width="80" height="30" as="geometry"/>
                </mxCell>
                <mxCell id="4ccsNfkE2tcqgr1__xzT-25" value="post" style="text;html=1;align=center;verticalAlign=middle;resizable=0;points=[];autosize=1;" vertex="1" parent="4C-G9B4-Cq-UseAx9-8V-1">
                    <mxGeometry x="180" y="660" width="40" height="20" as="geometry"/>
                </mxCell>
                <mxCell id="4ccsNfkE2tcqgr1__xzT-26" value="画像投稿&lt;br&gt;" style="text;html=1;align=center;verticalAlign=middle;resizable=0;points=[];autosize=1;" vertex="1" parent="4C-G9B4-Cq-UseAx9-8V-1">
                    <mxGeometry x="165" y="590" width="60" height="20" as="geometry"/>
                </mxCell>
                <mxCell id="4ccsNfkE2tcqgr1__xzT-27" value="position&lt;br&gt;" style="text;html=1;align=center;verticalAlign=middle;resizable=0;points=[];autosize=1;" vertex="1" parent="4C-G9B4-Cq-UseAx9-8V-1">
                    <mxGeometry x="90" y="565" width="60" height="20" as="geometry"/>
                </mxCell>
                <mxCell id="4ccsNfkE2tcqgr1__xzT-30" value="create post" style="rounded=0;whiteSpace=wrap;html=1;strokeColor=#F0F0F0;" vertex="1" parent="4C-G9B4-Cq-UseAx9-8V-1">
                    <mxGeometry x="276" y="550" width="120" height="60" as="geometry"/>
                </mxCell>
                <mxCell id="4ccsNfkE2tcqgr1__xzT-31" value="index&lt;br&gt;" style="text;html=1;align=center;verticalAlign=middle;resizable=0;points=[];autosize=1;" vertex="1" parent="4C-G9B4-Cq-UseAx9-8V-1">
                    <mxGeometry x="510" y="400" width="40" height="20" as="geometry"/>
                </mxCell>
                <mxCell id="4ccsNfkE2tcqgr1__xzT-32" value="カテゴリー別にpostできる" style="text;html=1;align=center;verticalAlign=middle;resizable=0;points=[];autosize=1;" vertex="1" parent="4C-G9B4-Cq-UseAx9-8V-1">
                    <mxGeometry x="256" y="500" width="160" height="20" as="geometry"/>
                </mxCell>
                <mxCell id="4ccsNfkE2tcqgr1__xzT-33" value="" style="rounded=0;whiteSpace=wrap;html=1;strokeColor=#F0F0F0;" vertex="1" parent="4C-G9B4-Cq-UseAx9-8V-1">
                    <mxGeometry x="277" y="630" width="120" height="60" as="geometry"/>
                </mxCell>
                <mxCell id="4ccsNfkE2tcqgr1__xzT-34" value="create job_post" style="text;html=1;align=center;verticalAlign=middle;resizable=0;points=[];autosize=1;" vertex="1" parent="4C-G9B4-Cq-UseAx9-8V-1">
                    <mxGeometry x="287" y="650" width="100" height="20" as="geometry"/>
                </mxCell>
                <mxCell id="4ccsNfkE2tcqgr1__xzT-35" value="" style="endArrow=classic;html=1;" edge="1" parent="4C-G9B4-Cq-UseAx9-8V-1">
                    <mxGeometry width="50" height="50" relative="1" as="geometry">
                        <mxPoint x="220" y="660" as="sourcePoint"/>
                        <mxPoint x="270" y="610" as="targetPoint"/>
                    </mxGeometry>
                </mxCell>
                <mxCell id="4ccsNfkE2tcqgr1__xzT-37" value="" style="endArrow=classic;html=1;entryX=0;entryY=0.5;entryDx=0;entryDy=0;" edge="1" parent="4C-G9B4-Cq-UseAx9-8V-1" target="4ccsNfkE2tcqgr1__xzT-33">
                    <mxGeometry width="50" height="50" relative="1" as="geometry">
                        <mxPoint x="240" y="680" as="sourcePoint"/>
                        <mxPoint x="320" y="590" as="targetPoint"/>
                        <Array as="points"/>
                    </mxGeometry>
                </mxCell>
                <mxCell id="4ccsNfkE2tcqgr1__xzT-38" value="" style="endArrow=classic;html=1;" edge="1" parent="4C-G9B4-Cq-UseAx9-8V-1" target="4ccsNfkE2tcqgr1__xzT-4">
                    <mxGeometry width="50" height="50" relative="1" as="geometry">
                        <mxPoint x="400" y="640" as="sourcePoint"/>
                        <mxPoint x="450" y="430" as="targetPoint"/>
                    </mxGeometry>
                </mxCell>
                <mxCell id="4ccsNfkE2tcqgr1__xzT-39" value="マイページ&lt;br&gt;&lt;ul&gt;&lt;li style=&quot;text-align: left&quot;&gt;編集&lt;/li&gt;&lt;li style=&quot;text-align: left&quot;&gt;画像投稿&lt;/li&gt;&lt;li&gt;postページに移動ボタン&lt;/li&gt;&lt;li style=&quot;text-align: left&quot;&gt;&lt;br&gt;&lt;/li&gt;&lt;/ul&gt;" style="text;html=1;align=center;verticalAlign=middle;resizable=0;points=[];autosize=1;" vertex="1" parent="4C-G9B4-Cq-UseAx9-8V-1">
                    <mxGeometry x="30" y="700" width="190" height="100" as="geometry"/>
                </mxCell>
                <mxCell id="4ccsNfkE2tcqgr1__xzT-40" value="devise&lt;br&gt;" style="text;html=1;align=center;verticalAlign=middle;resizable=0;points=[];autosize=1;" vertex="1" parent="4C-G9B4-Cq-UseAx9-8V-1">
                    <mxGeometry x="70" y="454" width="50" height="20" as="geometry"/>
                </mxCell>
                <mxCell id="4ccsNfkE2tcqgr1__xzT-41" value="timeline" style="text;html=1;align=center;verticalAlign=middle;resizable=0;points=[];autosize=1;" vertex="1" parent="4C-G9B4-Cq-UseAx9-8V-1">
                    <mxGeometry x="510" y="200" width="60" height="20" as="geometry"/>
                </mxCell>
            </root>
        </mxGraphModel>
    </diagram>
</mxfile>